<svg xmlns="http://www.w3.org/2000/svg" xmlns:xlink="http://www.w3.org/1999/xlink" width="143" zoomAndPan="magnify" viewBox="0 0 107.25 30.000001" height="40" preserveAspectRatio="xMidYMid meet" version="1.0"><defs><g/><clipPath id="9f4e64fb6e"><path d="M 84.210938 1.390625 L 91.171875 1.390625 L 91.171875 8.347656 L 84.210938 8.347656 Z M 84.210938 1.390625 " clip-rule="nonzero"/></clipPath></defs><g fill="#ffffff" fill-opacity="1"><g transform="translate(1.251733, 25.304209)"><g><path d="M 1.609375 0 L 1.609375 -20.921875 L 12.28125 -20.921875 C 14.613281 -20.921875 16.410156 -20.425781 17.671875 -19.4375 C 18.929688 -18.445312 19.5625 -17.039062 19.5625 -15.21875 C 19.5625 -14.0625 19.257812 -13.09375 18.65625 -12.3125 C 18.050781 -11.539062 17.175781 -11.007812 16.03125 -10.71875 L 16.03125 -10.6875 C 17.3125 -10.4375 18.296875 -9.894531 18.984375 -9.0625 C 19.679688 -8.226562 20.03125 -7.144531 20.03125 -5.8125 C 20.03125 -3.976562 19.378906 -2.550781 18.078125 -1.53125 C 16.773438 -0.507812 14.929688 0 12.546875 0 Z M 6.640625 -12.25 L 11.484375 -12.25 C 12.460938 -12.25 13.21875 -12.46875 13.75 -12.90625 C 14.289062 -13.351562 14.5625 -13.976562 14.5625 -14.78125 C 14.5625 -15.539062 14.289062 -16.132812 13.75 -16.5625 C 13.21875 -17 12.460938 -17.21875 11.484375 -17.21875 L 6.640625 -17.21875 Z M 6.640625 -3.734375 L 11.625 -3.734375 C 12.726562 -3.734375 13.570312 -3.957031 14.15625 -4.40625 C 14.75 -4.851562 15.046875 -5.488281 15.046875 -6.3125 C 15.046875 -7.195312 14.75 -7.875 14.15625 -8.34375 C 13.570312 -8.8125 12.726562 -9.046875 11.625 -9.046875 L 6.640625 -9.046875 Z M 6.640625 -3.734375 "/></g></g></g><g fill="#ffffff" fill-opacity="1"><g transform="translate(21.370426, 25.304209)"><g><path d="M 3.53125 -17.09375 C 2.738281 -17.09375 2.097656 -17.328125 1.609375 -17.796875 C 1.117188 -18.265625 0.875 -18.882812 0.875 -19.65625 C 0.875 -20.4375 1.117188 -21.0625 1.609375 -21.53125 C 2.097656 -22 2.738281 -22.234375 3.53125 -22.234375 C 4.332031 -22.234375 4.976562 -22 5.46875 -21.53125 C 5.957031 -21.0625 6.203125 -20.4375 6.203125 -19.65625 C 6.203125 -18.882812 5.957031 -18.265625 5.46875 -17.796875 C 4.976562 -17.328125 4.332031 -17.09375 3.53125 -17.09375 Z M 1.296875 0 L 1.296875 -15.046875 L 5.75 -15.046875 L 5.75 0 Z M 1.296875 0 "/></g></g></g><g fill="#ffffff" fill-opacity="1"><g transform="translate(27.802415, 25.304209)"><g><path d="M 9.015625 0.59375 C 7.347656 0.59375 5.890625 0.257812 4.640625 -0.40625 C 3.390625 -1.070312 2.414062 -2.015625 1.71875 -3.234375 C 1.019531 -4.460938 0.671875 -5.890625 0.671875 -7.515625 C 0.671875 -9.160156 1.019531 -10.585938 1.71875 -11.796875 C 2.414062 -13.015625 3.390625 -13.957031 4.640625 -14.625 C 5.890625 -15.289062 7.347656 -15.625 9.015625 -15.625 C 10.703125 -15.625 12.171875 -15.289062 13.421875 -14.625 C 14.671875 -13.957031 15.644531 -13.015625 16.34375 -11.796875 C 17.039062 -10.585938 17.390625 -9.160156 17.390625 -7.515625 C 17.390625 -5.890625 17.039062 -4.460938 16.34375 -3.234375 C 15.644531 -2.015625 14.671875 -1.070312 13.421875 -0.40625 C 12.171875 0.257812 10.703125 0.59375 9.015625 0.59375 Z M 9.015625 -3.140625 C 10.234375 -3.140625 11.191406 -3.53125 11.890625 -4.3125 C 12.597656 -5.101562 12.953125 -6.171875 12.953125 -7.515625 C 12.953125 -8.867188 12.597656 -9.9375 11.890625 -10.71875 C 11.191406 -11.5 10.234375 -11.890625 9.015625 -11.890625 C 7.816406 -11.890625 6.859375 -11.5 6.140625 -10.71875 C 5.429688 -9.9375 5.078125 -8.867188 5.078125 -7.515625 C 5.078125 -6.171875 5.429688 -5.101562 6.140625 -4.3125 C 6.859375 -3.53125 7.816406 -3.140625 9.015625 -3.140625 Z M 9.015625 -3.140625 "/></g></g></g><g fill="#ffffff" fill-opacity="1"><g transform="translate(45.189647, 25.304209)"><g><path d="M 1.171875 0 L 1.171875 -21.796875 L 5.671875 -21.796875 L 5.671875 0 Z M 1.171875 0 "/></g></g></g><g fill="#ffffff" fill-opacity="1"><g transform="translate(51.386661, 25.304209)"><g><path d="M 3.53125 -17.09375 C 2.738281 -17.09375 2.097656 -17.328125 1.609375 -17.796875 C 1.117188 -18.265625 0.875 -18.882812 0.875 -19.65625 C 0.875 -20.4375 1.117188 -21.0625 1.609375 -21.53125 C 2.097656 -22 2.738281 -22.234375 3.53125 -22.234375 C 4.332031 -22.234375 4.976562 -22 5.46875 -21.53125 C 5.957031 -21.0625 6.203125 -20.4375 6.203125 -19.65625 C 6.203125 -18.882812 5.957031 -18.265625 5.46875 -17.796875 C 4.976562 -17.328125 4.332031 -17.09375 3.53125 -17.09375 Z M 1.296875 0 L 1.296875 -15.046875 L 5.75 -15.046875 L 5.75 0 Z M 1.296875 0 "/></g></g></g><g fill="#ffffff" fill-opacity="1"><g transform="translate(57.818649, 25.304209)"><g><path d="M 11.015625 -15.484375 C 12.566406 -15.484375 13.78125 -15.03125 14.65625 -14.125 C 15.539062 -13.226562 15.984375 -11.976562 15.984375 -10.375 L 15.984375 0 L 11.484375 0 L 11.484375 -8.984375 C 11.484375 -9.847656 11.257812 -10.523438 10.8125 -11.015625 C 10.363281 -11.503906 9.742188 -11.75 8.953125 -11.75 C 7.992188 -11.75 7.207031 -11.4375 6.59375 -10.8125 C 5.976562 -10.1875 5.671875 -9.351562 5.671875 -8.3125 L 5.671875 0 L 1.171875 0 L 1.171875 -15.046875 L 4.96875 -15.046875 L 5.640625 -12.3125 L 5.671875 -12.3125 C 6.210938 -13.320312 6.9375 -14.101562 7.84375 -14.65625 C 8.757812 -15.207031 9.816406 -15.484375 11.015625 -15.484375 Z M 11.015625 -15.484375 "/></g></g></g><g fill="#ffffff" fill-opacity="1"><g transform="translate(74.236649, 25.304209)"><g><path d="M 1.171875 0 L 1.171875 -21.796875 L 5.671875 -21.796875 L 5.671875 -9.640625 L 5.703125 -9.640625 L 10.71875 -15.046875 L 15.953125 -15.046875 L 10.3125 -9.28125 L 16.21875 0 L 11.25 0 L 7.34375 -6.578125 L 5.671875 -4.8125 L 5.671875 0 Z M 1.171875 0 "/></g></g></g><g clip-path="url(#9f4e64fb6e)"><path fill="#ffde59" d="M 91.019531 1.390625 L 91.019531 8.191406 L 89.660156 8.191406 L 89.660156 3.714844 L 85.175781 8.199219 L 84.210938 7.234375 L 88.695312 2.75 L 84.21875 2.75 L 84.21875 1.390625 Z M 91.019531 1.390625 " fill-opacity="1" fill-rule="nonzero"/></g><g fill="#ffffff" fill-opacity="1"><g transform="translate(91.355188, 8.162376)"><g><path d="M 0.90625 0 L 0.90625 -6.9375 L 3.859375 -6.9375 C 4.285156 -6.9375 4.644531 -6.867188 4.9375 -6.734375 C 5.238281 -6.597656 5.460938 -6.40625 5.609375 -6.15625 C 5.765625 -5.914062 5.84375 -5.625 5.84375 -5.28125 C 5.84375 -4.976562 5.769531 -4.707031 5.625 -4.46875 C 5.476562 -4.238281 5.265625 -4.050781 4.984375 -3.90625 L 4.984375 -3.8125 C 5.421875 -3.695312 5.753906 -3.488281 5.984375 -3.1875 C 6.222656 -2.882812 6.34375 -2.515625 6.34375 -2.078125 C 6.34375 -1.410156 6.144531 -0.894531 5.75 -0.53125 C 5.351562 -0.175781 4.757812 0 3.96875 0 Z M 3.578125 -4.171875 C 4.210938 -4.171875 4.53125 -4.457031 4.53125 -5.03125 C 4.53125 -5.320312 4.453125 -5.539062 4.296875 -5.6875 C 4.140625 -5.832031 3.898438 -5.90625 3.578125 -5.90625 L 2.265625 -5.90625 L 2.265625 -4.171875 Z M 3.828125 -1.09375 C 4.585938 -1.09375 4.96875 -1.429688 4.96875 -2.109375 C 4.96875 -2.804688 4.585938 -3.15625 3.828125 -3.15625 L 2.265625 -3.15625 L 2.265625 -1.09375 Z M 3.828125 -1.09375 "/></g></g></g><g fill="#ffffff" fill-opacity="1"><g transform="translate(98.133486, 8.162376)"><g><path d="M 3.796875 0 L 2.4375 0 L 2.4375 -2.71875 L 0.03125 -6.9375 L 1.5 -6.9375 L 3.09375 -4.203125 L 3.203125 -4.203125 L 4.765625 -6.9375 L 6.203125 -6.9375 L 3.796875 -2.71875 Z M 3.796875 0 "/></g></g></g></svg>